<svg width="136" height="136" viewBox="0 0 136 136" fill="none" xmlns="http://www.w3.org/2000/svg">
<circle cx="68" cy="68" r="68" fill="#0E2545"/>
<path d="M91.625 53.3555H87.5518V50C87.5509 49.2046 87.2345 48.4421 86.6721 47.8796C86.1097 47.3172 85.3471 47.0009 84.5518 47H82.9482C82.1529 47.0009 81.3903 47.3172 80.8279 47.8796C80.2655 48.4421 79.9491 49.2046 79.9482 50V53.3555H71.8018V50C71.8009 49.2046 71.4845 48.4421 70.9221 47.8796C70.3597 47.3172 69.5971 47.0009 68.8018 47H67.1982C66.4029 47.0009 65.6403 47.3172 65.0779 47.8796C64.5155 48.4421 64.1991 49.2046 64.1982 50V53.3555H56.0518V50C56.0509 49.2046 55.7345 48.4421 55.1721 47.8796C54.6097 47.3172 53.8471 47.0009 53.0518 47H51.4482C50.6529 47.0009 49.8903 47.3172 49.3279 47.8796C48.7655 48.4421 48.4491 49.2046 48.4482 50V53.3555H44.375C43.2151 53.3568 42.1031 53.8181 41.2829 54.6383C40.4627 55.4585 40.0013 56.5705 40 57.7305V86.9805C40.0013 88.1404 40.4627 89.2524 41.2829 90.0726C42.1031 90.8928 43.2151 91.3541 44.375 91.3555H91.625C92.7849 91.3541 93.8969 90.8928 94.7171 90.0726C95.5373 89.2524 95.9987 88.1404 96 86.9805V57.7305C95.9987 56.5705 95.5373 55.4585 94.7171 54.6383C93.8969 53.8181 92.7849 53.3568 91.625 53.3555ZM82.9482 49H84.5518C84.8169 49.0003 85.0711 49.1057 85.2586 49.2932C85.4461 49.4807 85.5515 49.7349 85.5518 50V54.3506C85.5518 54.3587 85.5518 57.5767 85.5518 57.5864C85.5515 57.8516 85.4461 58.1058 85.2586 58.2933C85.0711 58.4807 84.8169 58.5862 84.5518 58.5864H82.9482C82.6831 58.5862 82.4289 58.4807 82.2414 58.2933C82.0539 58.1058 81.9485 57.8516 81.9482 57.5864V54.3603C81.9448 54.3492 81.9507 50.0118 81.9482 50C81.9485 49.7348 82.054 49.4807 82.2414 49.2932C82.4289 49.1057 82.6831 49.0003 82.9482 49ZM67.1982 49H68.8018C69.0669 49.0003 69.3211 49.1057 69.5086 49.2932C69.6961 49.4807 69.8015 49.7349 69.8018 50V54.3506C69.8018 54.3587 69.8018 57.5767 69.8018 57.5864C69.8015 57.8516 69.6961 58.1058 69.5086 58.2933C69.3211 58.4807 69.0669 58.5862 68.8018 58.5864H67.1982C66.9331 58.5862 66.6789 58.4807 66.4914 58.2933C66.3039 58.1058 66.1985 57.8516 66.1982 57.5864V54.3603C66.1948 54.3492 66.2007 50.0118 66.1982 50C66.1985 49.7348 66.304 49.4807 66.4914 49.2932C66.6789 49.1057 66.9331 49.0003 67.1982 49ZM51.4482 49H53.0518C53.3169 49.0003 53.5711 49.1057 53.7586 49.2932C53.9461 49.4807 54.0515 49.7349 54.0518 50V54.3506C54.0518 54.3587 54.0518 57.5767 54.0518 57.5864C54.0515 57.8516 53.9461 58.1058 53.7586 58.2933C53.5711 58.4807 53.3169 58.5862 53.0518 58.5864H51.4482C51.1831 58.5862 50.9289 58.4807 50.7414 58.2933C50.5539 58.1058 50.4485 57.8516 50.4482 57.5864V54.3603C50.4448 54.3492 50.4507 50.0118 50.4482 50C50.4485 49.7348 50.554 49.4807 50.7414 49.2932C50.9289 49.1057 51.1831 49.0003 51.4482 49ZM44.375 55.3555H48.4482V57.5865C48.4491 58.3818 48.7655 59.1444 49.3279 59.7068C49.8903 60.2692 50.6529 60.5856 51.4482 60.5865H53.0518C53.8471 60.5856 54.6097 60.2692 55.1721 59.7068C55.7345 59.1444 56.0509 58.3818 56.0518 57.5865V55.3555H64.1982V57.5865C64.1991 58.3818 64.5155 59.1444 65.0779 59.7068C65.6403 60.2692 66.4029 60.5856 67.1982 60.5865H68.8018C69.5971 60.5856 70.3597 60.2692 70.9221 59.7068C71.4845 59.1444 71.8009 58.3818 71.8018 57.5865V55.3555H79.9482V57.5865C79.9491 58.3818 80.2655 59.1444 80.8279 59.7068C81.3903 60.2692 82.1529 60.5856 82.9482 60.5865H84.5518C85.3471 60.5856 86.1097 60.2692 86.6721 59.7068C87.2345 59.1444 87.5509 58.3818 87.5518 57.5865V55.3555H91.625C92.2547 55.3562 92.8583 55.6066 93.3036 56.0519C93.7488 56.4971 93.9993 57.1008 94 57.7305V64.9282H42V57.7305C42.0007 57.1008 42.2512 56.4971 42.6964 56.0519C43.1417 55.6066 43.7453 55.3562 44.375 55.3555ZM91.625 89.3555H44.375C43.7453 89.3547 43.1417 89.1043 42.6964 88.659C42.2512 88.2138 42.0007 87.6101 42 86.9805V66.9282H94V86.9805C93.9993 87.6101 93.7488 88.2138 93.3036 88.659C92.8583 89.1043 92.2547 89.3547 91.625 89.3555Z" fill="white"/>
<path d="M68 69.4785C65.6965 69.4811 63.488 70.3973 61.8591 72.0261C60.2303 73.655 59.3141 75.8634 59.3115 78.167C59.7672 89.6851 76.2346 89.6819 76.6885 78.1669C76.686 75.8634 75.7697 73.6549 74.1409 72.0261C72.512 70.3972 70.3035 69.481 68 69.4785ZM68 84.8555C66.2267 84.8535 64.5266 84.1482 63.2727 82.8943C62.0188 81.6404 61.3135 79.9403 61.3115 78.167C61.6253 69.3147 74.376 69.317 74.6885 78.1671C74.6866 79.9404 73.9812 81.6405 72.7273 82.8944C71.4734 84.1483 69.7733 84.8535 68 84.8555Z" fill="white"/>
<path d="M71.3926 76.9629H69V74.5698C69 74.3046 68.8946 74.0503 68.7071 73.8627C68.5196 73.6752 68.2652 73.5698 68 73.5698C67.7348 73.5698 67.4804 73.6752 67.2929 73.8627C67.1054 74.0503 67 74.3046 67 74.5698V76.9629H64.6074C64.3422 76.9629 64.0879 77.0683 63.9003 77.2558C63.7128 77.4433 63.6074 77.6977 63.6074 77.9629C63.6074 78.2281 63.7128 78.4825 63.9003 78.67C64.0879 78.8575 64.3422 78.9629 64.6074 78.9629H67V81.3555C67 81.6207 67.1054 81.875 67.2929 82.0626C67.4804 82.2501 67.7348 82.3555 68 82.3555C68.2652 82.3555 68.5196 82.2501 68.7071 82.0626C68.8946 81.875 69 81.6207 69 81.3555V78.9629H71.3926C71.6544 78.9578 71.9038 78.8502 72.0872 78.6632C72.2706 78.4762 72.3733 78.2248 72.3733 77.9629C72.3733 77.701 72.2706 77.4496 72.0872 77.2626C71.9038 77.0756 71.6544 76.968 71.3926 76.9629Z" fill="white"/>
</svg>
