<svg width="136" height="136" viewBox="0 0 136 136" fill="none" xmlns="http://www.w3.org/2000/svg">
<circle cx="68" cy="68" r="68" fill="#F7B610"/>
<path d="M71.9976 98.005H51.9976C49.2376 98.005 46.9976 95.765 46.9976 93.005V64.005H35.9976C35.5776 64.005 35.1976 63.735 35.0576 63.335C34.9176 62.935 35.0376 62.495 35.3676 62.225L67.3676 36.225C67.7376 35.925 68.2576 35.925 68.6276 36.225L100.628 62.225C100.958 62.495 101.078 62.935 100.938 63.335C100.798 63.735 100.418 64.005 99.9976 64.005H88.9976V71.005C88.9976 71.555 88.5476 72.005 87.9976 72.005C87.4476 72.005 86.9976 71.555 86.9976 71.005V63.005C86.9976 62.455 87.4476 62.005 87.9976 62.005H97.1776L67.9976 38.295L38.8176 62.005H47.9976C48.5476 62.005 48.9976 62.455 48.9976 63.005V93.005C48.9976 94.655 50.3476 96.005 51.9976 96.005H71.9976C72.5476 96.005 72.9976 96.455 72.9976 97.005C72.9976 97.555 72.5476 98.005 71.9976 98.005Z" fill="white"/>
<path d="M57.998 74.0049C55.238 74.0049 52.998 71.7649 52.998 69.0049C52.998 66.2449 55.238 64.0049 57.998 64.0049C60.758 64.0049 62.998 66.2449 62.998 69.0049C62.998 71.7649 60.758 74.0049 57.998 74.0049ZM57.998 66.0049C56.348 66.0049 54.998 67.3549 54.998 69.0049C54.998 70.6549 56.348 72.0049 57.998 72.0049C59.648 72.0049 60.998 70.6549 60.998 69.0049C60.998 67.3549 59.648 66.0049 57.998 66.0049Z" fill="white"/>
<path d="M53.998 91.0049C53.448 91.0049 52.998 90.5549 52.998 90.0049V80.0049C52.998 77.2449 55.238 75.0049 57.998 75.0049C60.758 75.0049 62.998 77.2449 62.998 80.0049V86.0049C62.998 86.5549 62.548 87.0049 61.998 87.0049C61.448 87.0049 60.998 86.5549 60.998 86.0049V80.0049C60.998 78.3549 59.648 77.0049 57.998 77.0049C56.348 77.0049 54.998 78.3549 54.998 80.0049V90.0049C54.998 90.5549 54.548 91.0049 53.998 91.0049Z" fill="white"/>
<path d="M72.998 64.0049C70.238 64.0049 67.998 61.7649 67.998 59.0049C67.998 56.2449 70.238 54.0049 72.998 54.0049C75.758 54.0049 77.998 56.2449 77.998 59.0049C77.998 61.7649 75.758 64.0049 72.998 64.0049ZM72.998 56.0049C71.348 56.0049 69.998 57.3549 69.998 59.0049C69.998 60.6549 71.348 62.0049 72.998 62.0049C74.648 62.0049 75.998 60.6549 75.998 59.0049C75.998 57.3549 74.648 56.0049 72.998 56.0049Z" fill="white"/>
<path d="M68.998 81.0049C68.448 81.0049 67.998 80.5549 67.998 80.0049V70.0049C67.998 67.2449 70.238 65.0049 72.998 65.0049C75.758 65.0049 77.998 67.2449 77.998 70.0049V75.0049C77.998 75.5549 77.548 76.0049 76.998 76.0049C76.448 76.0049 75.998 75.5549 75.998 75.0049V70.0049C75.998 68.3549 74.648 67.0049 72.998 67.0049C71.348 67.0049 69.998 68.3549 69.998 70.0049V80.0049C69.998 80.5549 69.548 81.0049 68.998 81.0049Z" fill="white"/>
<path d="M61.998 93.0049C61.448 93.0049 60.998 92.5549 60.998 92.0049V90.0049C60.998 89.4549 61.448 89.0049 61.998 89.0049C62.548 89.0049 62.998 89.4549 62.998 90.0049V92.0049C62.998 92.5549 62.548 93.0049 61.998 93.0049Z" fill="white"/>
<path d="M68.998 88.0049C68.448 88.0049 67.998 87.5549 67.998 87.0049V83.0049C67.998 82.4549 68.448 82.0049 68.998 82.0049C69.548 82.0049 69.998 82.4549 69.998 83.0049V87.0049C69.998 87.5549 69.548 88.0049 68.998 88.0049Z" fill="white"/>
<path d="M86.998 102.005C79.278 102.005 72.998 95.7249 72.998 88.0049C72.998 80.2849 79.278 74.0049 86.998 74.0049C94.718 74.0049 100.998 80.2849 100.998 88.0049C100.998 95.7249 94.718 102.005 86.998 102.005ZM86.998 76.0049C80.378 76.0049 74.998 81.3849 74.998 88.0049C74.998 94.6249 80.378 100.005 86.998 100.005C93.618 100.005 98.998 94.6249 98.998 88.0049C98.998 81.3849 93.618 76.0049 86.998 76.0049Z" fill="white"/>
<path d="M89.998 96.0049H83.998C83.448 96.0049 82.998 95.5549 82.998 95.0049V92.0049H79.998C79.448 92.0049 78.998 91.5549 78.998 91.0049V85.0049C78.998 84.4549 79.448 84.0049 79.998 84.0049H82.998V81.0049C82.998 80.4549 83.448 80.0049 83.998 80.0049H89.998C90.548 80.0049 90.998 80.4549 90.998 81.0049V84.0049H93.998C94.548 84.0049 94.998 84.4549 94.998 85.0049V91.0049C94.998 91.5549 94.548 92.0049 93.998 92.0049H90.998V95.0049C90.998 95.5549 90.548 96.0049 89.998 96.0049ZM84.998 94.0049H88.998V91.0049C88.998 90.4549 89.448 90.0049 89.998 90.0049H92.998V86.0049H89.998C89.448 86.0049 88.998 85.5549 88.998 85.0049V82.0049H84.998V85.0049C84.998 85.5549 84.548 86.0049 83.998 86.0049H80.998V90.0049H83.998C84.548 90.0049 84.998 90.4549 84.998 91.0049V94.0049Z" fill="white"/>
</svg>
