<svg width="136" height="136" viewBox="0 0 136 136" fill="none" xmlns="http://www.w3.org/2000/svg">
<circle cx="68" cy="68" r="68" fill="#8C1D7F"/>
<path d="M96.4553 40H38.9732C38.1847 40 37.4284 40.3132 36.8708 40.8708C36.3132 41.4284 36 42.1847 36 42.9732V84.5982C36 85.3867 36.3132 86.143 36.8708 86.7005C37.4284 87.2581 38.1847 87.5714 38.9732 87.5714H66.7232V93.5178H51.3616C51.0987 93.5178 50.8467 93.6222 50.6608 93.8081C50.4749 93.9939 50.3705 94.246 50.3705 94.5089C50.3705 94.7717 50.4749 95.0238 50.6608 95.2097C50.8467 95.3955 51.0987 95.4999 51.3616 95.4999H84.0669C84.3298 95.4999 84.5818 95.3955 84.7677 95.2097C84.9536 95.0238 85.058 94.7717 85.058 94.5089C85.058 94.246 84.9536 93.9939 84.7677 93.8081C84.5818 93.6222 84.3298 93.5178 84.0669 93.5178H68.7053V87.5714H96.4553C97.2438 87.5714 98.0001 87.2581 98.5577 86.7005C99.1152 86.143 99.4285 85.3867 99.4285 84.5982V42.9732C99.4285 42.1847 99.1152 41.4284 98.5577 40.8708C98.0001 40.3132 97.2438 40 96.4553 40ZM61.3218 85.5892C61.5282 82.5298 62.6049 79.593 64.4249 77.1251C66.2449 74.6572 68.7324 72.7609 71.5943 71.6597C71.3988 72.5236 71.2745 73.4019 71.2226 74.2861C70.2165 74.4824 69.3123 75.0284 68.6702 75.8274C68.0281 76.6265 67.6894 77.627 67.7143 78.6517V82.616C67.7143 82.8789 67.8187 83.131 68.0045 83.3168C68.1904 83.5027 68.4425 83.6071 68.7053 83.6071H69.6964C69.9592 83.6071 70.2113 83.5027 70.3972 83.3168C70.583 83.131 70.6875 82.8789 70.6875 82.616C70.6875 82.3532 70.583 82.1011 70.3972 81.9152C70.2113 81.7294 69.9592 81.625 69.6964 81.625V78.6517C69.6964 77.9946 69.9574 77.3644 70.4221 76.8998C70.8867 76.4351 71.5169 76.1741 72.1741 76.1741C72.8312 76.1741 73.4614 76.4351 73.9261 76.8998C74.3907 77.3644 74.6517 77.9946 74.6517 78.6517V81.625C74.3889 81.625 74.1368 81.7294 73.951 81.9152C73.7651 82.1011 73.6607 82.3532 73.6607 82.616C73.6607 82.8789 73.7651 83.131 73.951 83.3168C74.1368 83.5027 74.3889 83.6071 74.6517 83.6071H75.6428C75.9057 83.6071 76.1577 83.5027 76.3436 83.3168C76.5295 83.131 76.6339 82.8789 76.6339 82.616V78.6517C76.6585 77.6412 76.3293 76.6539 75.7031 75.8604C75.077 75.0668 74.1933 74.517 73.2048 74.3059C73.2565 73.1812 73.4822 72.0712 73.8738 71.0155C74.9458 70.8046 76.037 70.7066 77.1294 70.7232C78.3403 70.7514 79.5439 70.9177 80.7171 71.2187C81.2823 72.4885 81.7012 73.8185 81.9658 75.183C81.3763 75.5626 80.9399 76.1384 80.7338 76.8087C80.5276 77.4789 80.565 78.2004 80.8393 78.8457C81.1136 79.4911 81.6071 80.0187 82.2327 80.3354C82.8583 80.6521 83.5757 80.7375 84.2582 80.5765C84.9407 80.4155 85.5443 80.0185 85.9624 79.4556C86.3805 78.8927 86.5862 78.2001 86.5432 77.5002C86.5001 76.8003 86.2111 76.1382 85.7272 75.6307C85.2432 75.1233 84.5955 74.8032 83.8984 74.7271C83.7094 73.8245 83.4712 72.9328 83.1849 72.0562C88.5911 74.3802 92.6 79.5635 92.9568 85.6091L61.3218 85.5892ZM81.7775 69.4447C83.3303 68.5363 84.6013 67.2156 85.4495 65.6291C85.6229 66.5805 85.7963 67.4725 85.945 68.1068C86.054 68.5863 86.0242 69.087 85.8593 69.5503C85.6943 70.0136 85.4009 70.4204 85.0134 70.7232C83.9783 70.1941 82.8947 69.7659 81.7775 69.4447ZM69.6964 59.7768C74.0224 59.4052 77.4763 56.7243 78.4971 55.8571H84.5624V61.308C84.5624 63.2794 83.7793 65.17 82.3854 66.564C80.9914 67.9579 79.1008 68.741 77.1294 68.741C75.1581 68.741 73.2674 67.9579 71.8735 66.564C70.4795 65.17 69.6964 63.2794 69.6964 61.308V59.7768ZM84.5624 53.875H69.6964V48.9196C69.7434 48.1465 70.0717 47.4172 70.6194 46.8695C71.1672 46.3217 71.8964 45.9934 72.6696 45.9464H81.5892C82.3624 45.9934 83.0917 46.3217 83.6394 46.8695C84.1871 47.4172 84.5155 48.1465 84.5624 48.9196V53.875ZM75.0878 55.8571C73.4517 56.8829 71.612 57.5406 69.6964 57.7848V55.8571H75.0878ZM68.1751 68.082C68.2742 67.5319 68.4476 66.4864 68.6459 65.2971C69.4571 66.9645 70.7276 68.3656 72.3079 69.3357C71.1415 69.6551 70.0133 70.1004 68.9432 70.6637C68.5935 70.3431 68.3374 69.9337 68.2022 69.479C68.0669 69.0244 68.0576 68.5415 68.1751 68.082ZM83.5714 76.6696C83.7674 76.6696 83.959 76.7277 84.122 76.8366C84.285 76.9455 84.412 77.1003 84.487 77.2814C84.562 77.4625 84.5816 77.6618 84.5434 77.854C84.5052 78.0463 84.4108 78.2229 84.2722 78.3615C84.1336 78.5001 83.957 78.5945 83.7647 78.6327C83.5725 78.6709 83.3732 78.6513 83.1921 78.5763C83.011 78.5013 82.8562 78.3743 82.7473 78.2113C82.6384 78.0483 82.5803 77.8567 82.5803 77.6607C82.5803 77.3978 82.6847 77.1457 82.8706 76.9599C83.0564 76.774 83.3085 76.6696 83.5714 76.6696ZM97.4464 84.5982C97.4464 84.861 97.3419 85.1131 97.1561 85.299C96.9702 85.4848 96.7181 85.5892 96.4553 85.5892H94.9687C94.7791 82.8081 93.9435 80.1096 92.5285 77.7079C91.1135 75.3062 89.1579 73.2676 86.8171 71.7539C87.3289 71.2187 87.6972 70.5629 87.8878 69.8473C88.0784 69.1317 88.0851 68.3796 87.9073 67.6608C87.4465 65.6786 86.6784 60.8967 86.5743 60.2277V48.9196C86.5248 47.6161 85.9828 46.3798 85.0577 45.4602C84.1325 44.5406 82.893 44.006 81.5892 43.9643H72.6696C71.371 44.0133 70.1389 44.5512 69.22 45.4701C68.3011 46.3889 67.7633 47.6211 67.7143 48.9196V58.7511C67.5854 59.5439 66.525 66.0305 66.2276 67.7401C66.0765 68.4325 66.0873 69.1506 66.2592 69.8382C66.4311 70.5258 66.7595 71.1644 67.2187 71.7043C66.2943 72.3431 65.4271 73.061 64.6271 73.85C61.445 76.9567 59.5501 81.1481 59.3199 85.5892H38.9732C38.7104 85.5892 38.4583 85.4848 38.2724 85.299C38.0866 85.1131 37.9821 84.861 37.9821 84.5982V42.9732C37.9821 42.7104 38.0866 42.4583 38.2724 42.2724C38.4583 42.0866 38.7104 41.9821 38.9732 41.9821H96.4553C96.7181 41.9821 96.9702 42.0866 97.1561 42.2724C97.3419 42.4583 97.4464 42.7104 97.4464 42.9732V84.5982Z" fill="white"/>
<path d="M59.2901 62.6856L45.4151 54.5093C45.2648 54.4225 45.0945 54.3767 44.921 54.3765C44.7476 54.3762 44.5771 54.4215 44.4266 54.5078C44.2761 54.594 44.1509 54.7183 44.0635 54.8681C43.9761 55.018 43.9295 55.1881 43.9285 55.3616V71.7142C43.9295 71.8877 43.9761 72.0578 44.0635 72.2077C44.1509 72.3575 44.2761 72.4818 44.4266 72.5681C44.5771 72.6543 44.7476 72.6996 44.921 72.6993C45.0945 72.6991 45.2648 72.6533 45.4151 72.5666L59.2901 64.3902C59.4379 64.3025 59.5605 64.1777 59.6456 64.0283C59.7306 63.8789 59.7754 63.7099 59.7754 63.5379C59.7754 63.3659 59.7306 63.1969 59.6456 63.0475C59.5605 62.8981 59.4379 62.7733 59.2901 62.6856ZM45.9106 69.9799V57.0959L56.8421 63.5379L45.9106 69.9799Z" fill="white"/>
<path d="M78.6159 48.9196H78.1204V48.4241C78.1204 48.1613 78.0159 47.9092 77.8301 47.7233C77.6442 47.5375 77.3921 47.433 77.1293 47.433C76.8664 47.433 76.6144 47.5375 76.4285 47.7233C76.2426 47.9092 76.1382 48.1613 76.1382 48.4241V48.9196H75.6427C75.3798 48.9196 75.1278 49.0241 74.9419 49.2099C74.756 49.3958 74.6516 49.6479 74.6516 49.9107C74.6516 50.1736 74.756 50.4257 74.9419 50.6115C75.1278 50.7974 75.3798 50.9018 75.6427 50.9018H76.1382V51.3973C76.1382 51.6602 76.2426 51.9123 76.4285 52.0981C76.6144 52.284 76.8664 52.3884 77.1293 52.3884C77.3921 52.3884 77.6442 52.284 77.8301 52.0981C78.0159 51.9123 78.1204 51.6602 78.1204 51.3973V50.9018H78.6159C78.8787 50.9018 79.1308 50.7974 79.3167 50.6115C79.5025 50.4257 79.607 50.1736 79.607 49.9107C79.607 49.6479 79.5025 49.3958 79.3167 49.2099C79.1308 49.0241 78.8787 48.9196 78.6159 48.9196Z" fill="white"/>
</svg>
